<?xml version="1.0" encoding="UTF-8" standalone="no"?>
<!-- Generator: Adobe Illustrator 16.0.0, SVG Export Plug-In . SVG Version: 6.00 Build 0)  -->

<svg
   xmlns:a="http://ns.adobe.com/AdobeSVGViewerExtensions/3.0/"
   xmlns:dc="http://purl.org/dc/elements/1.1/"
   xmlns:cc="http://creativecommons.org/ns#"
   xmlns:rdf="http://www.w3.org/1999/02/22-rdf-syntax-ns#"
   xmlns:svg="http://www.w3.org/2000/svg"
   xmlns="http://www.w3.org/2000/svg"
   xmlns:sodipodi="http://sodipodi.sourceforge.net/DTD/sodipodi-0.dtd"
   xmlns:inkscape="http://www.inkscape.org/namespaces/inkscape"
   version="1.1"
   id="Layer_1"
   x="0px"
   y="0px"
   width="35.720001"
   height="35.720001"
   viewBox="0 0 35.720001 35.720001"
   xml:space="preserve"
   inkscape:version="0.48.4 r9939"
   sodipodi:docname="logo-ff-favicon.svg"><metadata
     id="metadata72"><rdf:RDF><cc:Work
         rdf:about=""><dc:format>image/svg+xml</dc:format><dc:type
           rdf:resource="http://purl.org/dc/dcmitype/StillImage" /><dc:title /></cc:Work></rdf:RDF></metadata><defs
     id="defs70" /><sodipodi:namedview
     pagecolor="#ffffff"
     bordercolor="#666666"
     borderopacity="1"
     objecttolerance="10"
     gridtolerance="10"
     guidetolerance="10"
     inkscape:pageopacity="0"
     inkscape:pageshadow="2"
     inkscape:window-width="2495"
     inkscape:window-height="1416"
     id="namedview68"
     showgrid="false"
     inkscape:zoom="4.3930889"
     inkscape:cx="81.556008"
     inkscape:cy="17.330345"
     inkscape:window-x="65"
     inkscape:window-y="24"
     inkscape:window-maximized="1"
     inkscape:current-layer="Layer_1"
     fit-margin-top="0"
     fit-margin-left="0"
     fit-margin-right="0"
     fit-margin-bottom="0" /><g
     id="g25"
     transform="translate(-55.683001,7.8610005)"><path
       d="m 59.531,11.897 c -0.198,-0.598 -0.013,-1.236 -0.013,-1.9 0,-0.67 -0.183,-1.316 0.019,-1.918 L 56.294,7.503 c -0.208,0.797 -0.611,1.633 -0.611,2.494 0,0.943 0.425,1.857 0.673,2.725 l 3.175,-0.825 z"
       id="path27"
       inkscape:connector-curvature="0"
       style="fill:#006f83" /><path
       d="m 90.938,11.81 c 0.109,-0.588 0.459,-1.193 0.459,-1.812 0,-0.844 -0.399,-1.664 -0.6,-2.449 l -3.339,0.297 c 0.256,0.668 0.104,1.395 0.104,2.152 0,0.711 0.169,1.393 -0.056,2.025 l 3.432,-0.213 z"
       id="path29"
       inkscape:connector-curvature="0"
       style="fill:#6457a4" /><path
       d="M 67.349,13.479 62.227,9.997 67.349,6.516 v 6.963 z"
       id="path31"
       inkscape:connector-curvature="0"
       style="fill:none" /><path
       d="m 80.009,6.515 5.122,3.482 -5.122,3.482 V 6.515 z"
       id="path33"
       inkscape:connector-curvature="0"
       style="fill:none" /><linearGradient
       id="SVGID_1_"
       gradientUnits="userSpaceOnUse"
       x1="62.565899"
       y1="20.971701"
       x2="84.512802"
       y2="-0.9752"><stop
         offset="0.5016"
         style="stop-color:#006F83"
         id="stop36" /><stop
         offset="0.8"
         style="stop-color:#6457A4"
         id="stop38" /><a:midPointStop
         offset="0.5016"
         style="stop-color:#006F83" /><a:midPointStop
         offset="0.5"
         style="stop-color:#006F83" /><a:midPointStop
         offset="0.8"
         style="stop-color:#6457A4" /></linearGradient><path
       d="m 81.51,0.11 c -2.961,0 -5.742,1.315 -7.633,3.609 -1.454,1.765 -2.255,3.995 -2.255,6.278 0,3.338 -2.714,6.053 -6.051,6.053 -3.337,0 -6.052,-2.715 -6.052,-6.053 h -3.835 c 0,5.455 4.436,9.891 9.888,9.891 2.96,0 5.742,-1.316 7.632,-3.611 1.454,-1.764 2.256,-3.994 2.256,-6.279 0,-3.336 2.714,-6.051 6.051,-6.051 3.336,0 6.052,2.715 6.052,6.051 h 3.835 C 91.396,4.545 86.961,0.11 81.51,0.11 z"
       id="path40"
       style="fill:url(#SVGID_1_)"
       inkscape:connector-curvature="0" /><linearGradient
       id="SVGID_2_"
       gradientUnits="userSpaceOnUse"
       x1="57.310101"
       y1="12.0605"
       x2="69.766998"
       y2="-0.3964"><stop
         offset="0.2"
         style="stop-color:#006F83"
         id="stop43" /><stop
         offset="0.9"
         style="stop-color:#000002"
         id="stop45" /><a:midPointStop
         offset="0.2"
         style="stop-color:#006F83" /><a:midPointStop
         offset="0.5"
         style="stop-color:#006F83" /><a:midPointStop
         offset="0.9"
         style="stop-color:#000002" /></linearGradient><path
       d="m 65.571,3.946 c 2.019,0 3.878,1.007 4.995,2.639 C 70.979,5.264 71.629,4.022 72.48,2.935 70.619,1.11 68.18,0.11 65.571,0.11 c -5.452,0 -9.888,4.436 -9.888,9.887 h 3.835 c 10e-4,-3.336 2.716,-6.051 6.053,-6.051 z"
       id="path47"
       style="fill:url(#SVGID_2_)"
       inkscape:connector-curvature="0" /><linearGradient
       id="SVGID_3_"
       gradientUnits="userSpaceOnUse"
       x1="77.313499"
       y1="20.3936"
       x2="89.771599"
       y2="7.9354"><stop
         offset="0.1"
         style="stop-color:#000002"
         id="stop50" /><stop
         offset="0.8"
         style="stop-color:#6457A4"
         id="stop52" /><a:midPointStop
         offset="0.1"
         style="stop-color:#000002" /><a:midPointStop
         offset="0.5"
         style="stop-color:#000002" /><a:midPointStop
         offset="0.8"
         style="stop-color:#6457A4" /></linearGradient><path
       d="m 81.51,16.05 c -2.019,0 -3.878,-1.008 -4.995,-2.639 -0.413,1.322 -1.063,2.564 -1.914,3.65 1.86,1.824 4.299,2.826 6.909,2.826 5.451,0 9.887,-4.436 9.887,-9.891 h -3.835 c 0,3.339 -2.716,6.054 -6.052,6.054 z"
       id="path54"
       style="fill:url(#SVGID_3_)"
       inkscape:connector-curvature="0" /><polygon
       points="85.13,9.997 80.009,6.515 80.009,13.479 "
       id="polygon56"
       style="fill:#6457a4" /><polygon
       points="62.227,9.997 67.349,13.479 67.349,6.516 "
       id="polygon58"
       style="fill:#006f83" /></g></svg>